<svg id="légende" xmlns="http://www.w3.org/2000/svg" xmlns:xlink="http://www.w3.org/1999/xlink" viewBox="0 0 19.24 22.71">
  <defs>
    <style>
      .cls-1, .cls-3 {
        fill: none;
      }

      .cls-2 {
        clip-path: url(#clip-path);
      }

      .cls-3 {
        stroke: #221f20;
        stroke-miterlimit: 10;
        stroke-width: 0.28px;
      }

      .cls-4, .cls-5 {
        fill: #862f8b;
      }

      .cls-4 {
        fill-opacity: 0.25;
      }
    </style>
    <clipPath id="clip-path">
      <path class="cls-1" d="M5.81,1.16V1.8a1.2,1.2,0,0,1,.43.9,1.23,1.23,0,0,1-.43,1L8.94,4V0h10.3V22.43S0,23.06,0,22.43V1.18Z"/>
    </clipPath>
    <symbol id="Nouveau_symbole" data-name="Nouveau symbole" viewBox="0 0 19.24 22.71">
      <g class="cls-2">
        <path class="cls-3" d="M5.06,3.91a1.19,1.19,0,0,1,0-2.37"/>
        <path class="cls-4" d="M17.66,14.68,15.13,7.91a3.2,3.2,0,0,0-2.71-2.06l-1-2.69A2.76,2.76,0,0,0,10,1.6a2.72,2.72,0,0,0-2.13-.08L4.15,2.89A2.74,2.74,0,0,0,2.59,4.34a2.79,2.79,0,0,0-.08,2.14l1,2.69a3.21,3.21,0,0,0-.7,3.34l2.52,6.77a3.22,3.22,0,0,0,4.12,1.88l6.32-2.36A3.21,3.21,0,0,0,17.66,14.68Zm-13-6.29-.21.11-.9-2.42a1.65,1.65,0,0,1,0-1.27A1.67,1.67,0,0,1,4.55,4L8.21,2.58a1.67,1.67,0,0,1,2.14,1L11.25,6A1.55,1.55,0,0,0,11,6Zm7.23,9.49-.14.05a.57.57,0,0,1-.73-.33L9,12a1.23,1.23,0,0,1-1-.78,1.28,1.28,0,1,1,2.17.34l2.1,5.62A.57.57,0,0,1,11.92,17.88Z"/>
        <path class="cls-5" d="M16.84,14.34,14.31,7.56a3.19,3.19,0,0,0-2.71-2l-1-2.7A2.79,2.79,0,0,0,9.13,1.25,2.76,2.76,0,0,0,7,1.17L3.33,2.54A2.79,2.79,0,0,0,1.77,4,2.76,2.76,0,0,0,1.7,6.13l1,2.7A3.21,3.21,0,0,0,2,12.16l2.53,6.78a3.2,3.2,0,0,0,4.11,1.87L15,18.45A3.2,3.2,0,0,0,16.84,14.34Zm-13-6.29-.22.1-.9-2.41a1.6,1.6,0,0,1,.05-1.27,1.64,1.64,0,0,1,.92-.87L7.4,2.23a1.66,1.66,0,0,1,2.13,1l.9,2.42-.23.06Zm7.22,9.49-.14.05a.57.57,0,0,1-.73-.33l-2.1-5.63a1.26,1.26,0,0,1-1-.79A1.28,1.28,0,1,1,9.55,10a1.26,1.26,0,0,1-.22,1.23l2.1,5.63A.57.57,0,0,1,11.1,17.54Z"/>
      </g>
      <path class="cls-3" d="M5.06,1.54a1.19,1.19,0,1,1,0,2.37"/>
    </symbol>
  </defs>
  <use width="19.24" height="22.71" transform="translate(0 0)" xlink:href="#Nouveau_symbole"/>
</svg>
