<svg id="légende" xmlns="http://www.w3.org/2000/svg" xmlns:xlink="http://www.w3.org/1999/xlink" viewBox="0 0 41.61 26.01">
  <defs>
    <style>
      .cls-1, .cls-2 {
        fill: none;
      }

      .cls-2, .cls-3 {
        stroke: #fff;
        stroke-miterlimit: 10;
        stroke-width: 0.43px;
      }

      .cls-3 {
        fill: #eeaa41;
      }

      .cls-4 {
        clip-path: url(#clip-path);
      }

      .cls-5 {
        isolation: isolate;
      }

      .cls-6 {
        fill: #fff;
      }
    </style>
    <clipPath id="clip-path" transform="translate(0 0)">
      <rect class="cls-1" width="41.6" height="26.02"/>
    </clipPath>
    <symbol id="Local" data-name="Local" viewBox="0 0 41.61 26.01">
      <g id="Regional">
        <g>
          <line class="cls-2" x1="30.1" y1="17.99" x2="11.5" y2="17.99"/>
          <line class="cls-2" x1="30.1" y1="17.99" x2="11.5" y2="17.99"/>
          <path class="cls-3" d="M32.14,11.54A11.34,11.34,0,1,0,20.8,22.89,11.32,11.32,0,0,0,32.14,11.54v0"/>
          <polyline class="cls-3" points="18.8 13.21 17.45 14.55 10.01 14.55"/>
          <line class="cls-2" x1="18.71" y1="11.46" x2="9.46" y2="11.46"/>
          <polyline class="cls-3" points="31.64 14.39 24.08 14.39 22.78 13.1"/>
          <polyline class="cls-3" points="26.52 1.75 20.73 1.75 20.73 9.27 22.84 9.27 22.84 13.35 18.71 13.35 18.71 9.3 17.38 7.99 10 7.99"/>
          <line class="cls-2" x1="20.82" y1="13.38" x2="20.82" y2="22.88"/>
          <line class="cls-2" x1="30.06" y1="5" x2="11.51" y2="5"/>
          <polyline class="cls-3" points="31.69 8.12 24.08 8.12 22.89 9.3"/>
          <line class="cls-2" x1="32.14" y1="11.28" x2="22.84" y2="11.28"/>
        </g>
        <path class="cls-3" d="M41.39,21.14a4.65,4.65,0,0,0-4.65-4.65H4.86a4.65,4.65,0,0,0,0,9.3H36.74a4.64,4.64,0,0,0,4.65-4.64h0"/>
      </g>
    </symbol>
  </defs>
  <g>
    <g class="cls-4">
      <use width="41.61" height="26.01" transform="matrix(1, 0, 0, -1, 0, 26.01)" xlink:href="#Local"/>
    </g>
    <g class="cls-5">
      <path class="cls-6" d="M15,2.24h1.89c1.36,0,2,.55,2,1.86,0,1.46-.72,2-2,2h-.32v1.7H15ZM16.8,4.92c.38,0,.54-.19.54-.78s-.14-.7-.55-.7h-.2V4.92Z" transform="translate(0 0)"/>
      <path class="cls-6" d="M23.38,7.81l0-.64c-.08-1.29-.09-2.9-.09-2.9h0s-.14.75-.57,2.23H21.39C21,5,20.84,4.27,20.84,4.27h0s0,1.59-.1,2.89l0,.65H19.22l.34-5.57H21.3A24.85,24.85,0,0,1,22,5.31h0a23.91,23.91,0,0,1,.73-3.07h1.73l.34,5.57Z" transform="translate(0 0)"/>
      <path class="cls-6" d="M25.49,2.24h1.56V7.81H25.49Z" transform="translate(0 0)"/>
    </g>
  </g>
</svg>
