<svg id="légende" xmlns="http://www.w3.org/2000/svg" xmlns:xlink="http://www.w3.org/1999/xlink" viewBox="0 0 41.59 33.52">
  <defs>
    <style>
      .cls-1, .cls-4 {
        fill: none;
      }

      .cls-2 {
        fill: #eeaa41;
      }

      .cls-3 {
        fill: #221f20;
      }

      .cls-4, .cls-5 {
        stroke: #221f20;
        stroke-miterlimit: 10;
        stroke-width: 0.85px;
      }

      .cls-5 {
        fill: #fff;
      }

      .cls-6 {
        clip-path: url(#clip-path);
      }

      .cls-7 {
        isolation: isolate;
      }
    </style>
    <clipPath id="clip-path" transform="translate(-0.21 -0.01)">
      <rect class="cls-1" width="41.8" height="33.52"/>
    </clipPath>
    <symbol id="National" data-name="National" viewBox="0 0 41.59 33.52">
      <g>
        <g>
          <rect class="cls-2" x="9.05" y="0.42" width="23.29" height="23.39" rx="1.87"/>
          <path class="cls-3" d="M30.46,23.39a1.45,1.45,0,0,0,1.45-1.45V2.29A1.45,1.45,0,0,0,30.46.85H10.92A1.45,1.45,0,0,0,9.47,2.29V21.94a1.45,1.45,0,0,0,1.45,1.45H30.46m0,.85H10.92a2.3,2.3,0,0,1-2.3-2.3h0V2.29A2.3,2.3,0,0,1,10.92,0H30.46a2.3,2.3,0,0,1,2.33,2.27V21.94a2.3,2.3,0,0,1-2.3,2.3Z"/>
        </g>
        <polyline class="cls-4" points="23.35 9.89 26.4 6.84 32.48 6.84"/>
        <line class="cls-4" x1="24.12" y1="12.35" x2="32.48" y2="12.35"/>
        <polyline class="cls-4" points="18.23 14.76 15.15 17.83 9.08 17.83"/>
        <line class="cls-4" x1="17.36" y1="12.35" x2="9.08" y2="12.35"/>
        <polyline class="cls-4" points="18.38 10.04 15.13 6.79 9.08 6.79"/>
        <path class="cls-4" d="M20.79,23.91V15.52h-.08a3.35,3.35,0,1,1,2.51-1.12h0l3.42,3.42h5.85"/>
        <line class="cls-4" x1="20.79" y1="8.71" x2="20.79" y2="0.37"/>
      </g>
      <g id="Europeen">
        <path class="cls-5" d="M41.17,28.45a4.65,4.65,0,0,0-4.65-4.65H4.86a4.65,4.65,0,0,0,0,9.29H36.52a4.66,4.66,0,0,0,4.65-4.64"/>
      </g>
    </symbol>
  </defs>
  <g class="cls-6">
    <use width="41.59" height="33.52" transform="matrix(1, 0, 0, -1, 0, 33.52)" xlink:href="#National"/>
  </g>
  <g class="cls-7">
    <path class="cls-3" d="M8.16,2.36c1.52,0,2.05.57,2.05,2.91S9.63,8.13,8.16,8.13,6.09,7.61,6.09,5.26,6.7,2.36,8.16,2.36Zm.49,2.9c0-1.44-.15-1.66-.49-1.66s-.51.22-.51,1.66.17,1.63.51,1.63S8.65,6.7,8.65,5.26Z" transform="translate(-0.21 -0.01)"/>
    <path class="cls-3" d="M14.17,7.87a5.07,5.07,0,0,1-1.5.23c-1.26,0-2-.51-2-2.88s.67-2.84,2-2.83a5,5,0,0,1,1.47.21L14,3.73a5.85,5.85,0,0,0-.91-.11c-.59,0-.79.18-.79,1.6s.22,1.64.78,1.64A3.44,3.44,0,0,0,14,6.74Z" transform="translate(-0.21 -0.01)"/>
    <path class="cls-3" d="M15.52,3.7h-1V2.46h3.64V3.7h-1V8H15.52Z" transform="translate(-0.21 -0.01)"/>
    <path class="cls-3" d="M20.48,2.36c1.52,0,2.05.57,2.05,2.91S22,8.13,20.48,8.13s-2.07-.52-2.07-2.87S19,2.36,20.48,2.36ZM21,5.26c0-1.44-.15-1.66-.49-1.66S20,3.82,20,5.26s.17,1.63.51,1.63S21,6.7,21,5.26Z" transform="translate(-0.21 -0.01)"/>
    <path class="cls-3" d="M23.14,2.46H25c1.36,0,2,.55,2,1.86s-.72,2-2,2H24.7V8H23.14Zm1.77,2.68c.38,0,.54-.19.54-.78s-.14-.69-.55-.69h-.2V5.14Z" transform="translate(-0.21 -0.01)"/>
    <path class="cls-3" d="M27.5,2.46h1.55v4c0,.2.08.41.44.41s.43-.21.43-.41v-4h1.56v4c0,1.16-.67,1.71-2,1.71s-2-.55-2-1.7Z" transform="translate(-0.21 -0.01)"/>
    <path class="cls-3" d="M32.18,6.67a7.41,7.41,0,0,0,1.36.19c.51,0,.6-.14.6-.4s-.17-.4-.47-.53l-.41-.19A1.63,1.63,0,0,1,32.06,4c0-1.22.75-1.63,1.81-1.63a5.27,5.27,0,0,1,1.57.23L35.18,3.8a6,6,0,0,0-1.09-.15c-.41,0-.51.12-.51.36s.11.32.35.43l.28.13c.93.42,1.45.77,1.45,1.74,0,1.34-.57,1.79-1.89,1.79A7.06,7.06,0,0,1,32,7.83Z" transform="translate(-0.21 -0.01)"/>
  </g>
</svg>
