<svg id="légende" xmlns="http://www.w3.org/2000/svg" xmlns:xlink="http://www.w3.org/1999/xlink" viewBox="0 0 41.75 26.16">
  <defs>
    <style>
      .cls-1, .cls-2, .cls-3 {
        fill: none;
      }

      .cls-2, .cls-3, .cls-4, .cls-5 {
        stroke: #221f20;
        stroke-width: 0.57px;
      }

      .cls-2, .cls-5 {
        stroke-miterlimit: 10;
      }

      .cls-4, .cls-5 {
        fill: #eeaa41;
      }

      .cls-6 {
        clip-path: url(#clip-path);
      }

      .cls-7 {
        isolation: isolate;
      }

      .cls-8 {
        fill: #221f20;
      }
    </style>
    <clipPath id="clip-path" transform="translate(0 0.01)">
      <rect class="cls-1" width="41.74" height="26.16"/>
    </clipPath>
    <symbol id="Regional" data-name="Regional" viewBox="0 0 41.75 26.16">
      <g>
        <line class="cls-2" x1="30.17" y1="18.08" x2="11.57" y2="18.08"/>
        <line class="cls-3" x1="30.17" y1="18.08" x2="11.57" y2="18.08"/>
        <path class="cls-4" d="M32.21,11.63A11.34,11.34,0,1,0,20.87,23h0A11.34,11.34,0,0,0,32.21,11.63"/>
        <polyline class="cls-3" points="18.88 13.29 17.52 14.63 10.08 14.63"/>
        <line class="cls-3" x1="18.79" y1="11.55" x2="9.53" y2="11.55"/>
        <polyline class="cls-3" points="31.71 14.47 24.15 14.47 22.85 13.18"/>
        <polyline class="cls-3" points="26.59 1.82 20.8 1.82 20.8 9.35 22.91 9.35 22.91 13.43 18.79 13.43 18.79 9.38 17.45 8.05 10.07 8.05"/>
        <line class="cls-3" x1="20.9" y1="13.47" x2="20.9" y2="22.97"/>
        <line class="cls-3" x1="30.13" y1="5.08" x2="11.58" y2="5.08"/>
        <polyline class="cls-3" points="31.76 8.2 24.15 8.2 22.96 9.38"/>
        <line class="cls-3" x1="32.21" y1="11.36" x2="22.91" y2="11.36"/>
      </g>
      <path class="cls-5" d="M41.46,21.23a4.65,4.65,0,0,0-4.65-4.65H4.93a4.65,4.65,0,0,0,0,9.3H36.81a4.65,4.65,0,0,0,4.65-4.65h0"/>
    </symbol>
  </defs>
  <g>
    <g class="cls-6">
      <use width="41.75" height="26.16" transform="matrix(1, 0, 0, -1, 0, 26.16)" xlink:href="#Regional"/>
    </g>
    <g class="cls-7">
      <path class="cls-8" d="M10,6.67a7.41,7.41,0,0,0,1.36.19c.51,0,.6-.14.6-.4s-.17-.4-.47-.53l-.41-.19A1.62,1.62,0,0,1,9.9,4c0-1.22.74-1.63,1.81-1.63a5.2,5.2,0,0,1,1.56.23L13,3.8a6.14,6.14,0,0,0-1.09-.15c-.41,0-.51.12-.51.36s.1.32.35.43l.28.13C13,5,13.5,5.34,13.5,6.31c0,1.34-.57,1.79-1.9,1.79a7.2,7.2,0,0,1-1.79-.27Z" transform="translate(0 0.01)"/>
      <path class="cls-8" d="M14.07,2.46h1.56V8H14.07Z" transform="translate(0 0.01)"/>
      <path class="cls-8" d="M16.43,2.46h3.28V3.7H18v.86h1.32V5.72H18V6.79h1.74V8h-3.3Z" transform="translate(0 0.01)"/>
      <path class="cls-8" d="M23.61,7.87a5.16,5.16,0,0,1-1.5.23c-1.27,0-2-.51-2-2.88s.66-2.84,2-2.83a5,5,0,0,1,1.46.21l-.2,1.13a5.89,5.89,0,0,0-.9-.11c-.59,0-.79.18-.79,1.6s.22,1.64.77,1.64a3.39,3.39,0,0,0,.91-.12Z" transform="translate(0 0.01)"/>
      <path class="cls-8" d="M24.2,2.46h1.55V6.79h1.47V8h-3Z" transform="translate(0 0.01)"/>
      <path class="cls-8" d="M27.76,2.46H31V3.7H29.31v.86h1.32V5.72H29.31V6.79h1.75V8h-3.3Z" transform="translate(0 0.01)"/>
    </g>
  </g>
</svg>
