<svg id="titre" xmlns="http://www.w3.org/2000/svg" viewBox="0 0 328.6 105.24">
  <defs>
    <style>
      .cls-1 {
        isolation: isolate;
      }

      .cls-2 {
        fill: #221f20;
      }
    </style>
  </defs>
  <g class="cls-1">
    <path class="cls-2" d="M48.86,11.88c0,3.18-.19,6.72-.19,10,0,1.32.8,3.12-2.81,3.12-1.59,0-3.43-.24-5.08-.24-.74,2.16-.49,15.42-.49,21.18a.83.83,0,0,0-.25.48,5.8,5.8,0,0,1,.37,2,2.55,2.55,0,0,1-.61,1.86c-1,0-2.45-.18-3.67-.18a7.69,7.69,0,0,0-1.78.18c.49.72-1.28.72-2.45.72-1,0-1.95-.18-2.87-.18s-2,.18-2.69.18c-1.23,0-1.11-.9-1.47-.9a.56.56,0,0,0-.31.18c0-1-.24-1.92-.24-2.76a7.27,7.27,0,0,1,.42-1.68.47.47,0,0,0-.18-.36V31.5a1.67,1.67,0,0,0,.49-1l-.49-.48V24.72c-1.28,0-3.06.24-4.65.24a8.79,8.79,0,0,1-2.27-.24c0-1.44-.18-2.88-.18-4.62,0-2.4.18-5,.18-6.9a5.68,5.68,0,0,1-.3-1.86c0-2.46,2.39-2,4.77-2H22a3.91,3.91,0,0,1,1.59-.42s-.24.18-.24.3.06.12.24.12C26,9.36,28.29,9,31.17,9a43.83,43.83,0,0,1,5.14.3H48.67A16.66,16.66,0,0,1,48.86,11.88ZM35.52,42.66c.3,0,.55-.54.55-1a.85.85,0,0,0-.19-.6c-.55.48-.55.48-.55,1C35.33,42.3,35.21,42.66,35.52,42.66Zm-.19-16.44c0,.42,0,1,.55,1C35.88,27.18,35.88,26.22,35.33,26.22Zm.31,1.62c-.06,0-.19.06-.31.3,0,0,0,1.26.25,1.26s.18-.12.3-.3C35.88,28.68,35.88,27.84,35.64,27.84Zm.3,2c0-.18-.12-.36-.61-.36.55.54,0,1,.55,1C35.88,30.3,35.94,30.12,35.94,29.88Zm-.18,1.86c0-.3.25-.66.25-.9s-.13-.3-.68-.3c.55.48,0,1.44.55,1.44A.24.24,0,0,1,35.76,31.74Zm-.18,14.52c-.06,0-.13.06-.25.12a1.4,1.4,0,0,0,.55,1C35.88,47,35.88,46.26,35.58,46.26Zm.06-10.92a.62.62,0,0,0,.24.48,3.89,3.89,0,0,0,.31-1.38,1.65,1.65,0,0,0-.31-1c0-.3.19-.66.19-.84s-.06-.12-.19-.12a.62.62,0,0,0-.24.48,14.08,14.08,0,0,1,.24,1.44C35.88,34.68,35.64,35,35.64,35.34Zm.43-17.7c0,.48-.19-.12-.19.9.43.42,0,1,.43,1a13.57,13.57,0,0,1,.25-1.44.71.71,0,0,0-.25-.54c.19-1.26.55-.18.55-1.92a.49.49,0,0,0-.55-.48c0,.48-.43,1.44-.43,1.92C35.7,17.46,36.07,17.58,36.07,17.64Zm0,18.54c0-.12-.19-.36-.19-.36v.48C36,36.3,36.07,36.24,36.07,36.18Zm.85-21.84c0-.18-.06-.3-.18-.3a1.68,1.68,0,0,0-.43.12c0,.48,0,1,.55,1C36.86,14.88,36.92,14.58,36.92,14.34Zm.13-.9a2.23,2.23,0,0,0-.19-.72c0-.9.19-.36.19-.84,0-.06-.07-.12-.19-.12a1.5,1.5,0,0,0-.43,1.14c0,.42.13.78.43.78A.22.22,0,0,0,37.05,13.44Z" transform="translate(0 -8.82)"/>
    <path class="cls-2" d="M54.06,42.42c-.8,0,.06-1.68-1-1.38,0-1-1.59-1.92-1.59-3.3,0-.18.24-.48.24-.84-.36,0-1-1.2-1-1.74,0-1.44-.3-2.88-.3-5.16,0-2.1,0-4.74.79-5.4,0-.36-.24-.48-.24-.54s.37-.42.73-.42c0-.3-.24-.36-.24-.42h.24v-1a4.37,4.37,0,0,0,.49-1.8c.25,0,.61,0,.61-.48,0-.06-.18-.18-.18-.48s1.9-1.38,1.9-1.86c0-.84.43-.84.92-1.32,0-.6-.19-.48,1.4-1.8.62-.72,2-1.56,1.9-1.86,1.23,0,.86-1,2.33-1,.67-.06-.37-.6,1.4-.9-.36-.42,2.7-1.38,4.23-1.38.24.12,2-.3,4-.3,2.5,0,4.16.72,5.75.72,1.16,0,.86.36,1,.54.37.3,3.12.84,2.81,1.86.31,0,.62-.24.8-.24s.12.24,1.53,1.56C83,14,84,14,84.48,14.94c-.13.42,0,.54.42.42,1.66,2.4,2.33,2.94,2.33,3.72,1,0,.12.48,1,1.38-.12,1.2.92.54.92,2.76.92.24.18,1.5,1,2.28a33.49,33.49,0,0,1,.3,4.38,41.89,41.89,0,0,1-.3,4.74h-.49c0,1.38-.49,2.28-.49,3.24-.31,0-1.35,2.16-1.35,3.18-.73.54-.73,1.14-1,1,0,1.2-.3.24-.92.84a.9.9,0,0,1,.19.42c0,.36-.55.42-1.17,1-.42.42-.42.9-.91,1.38a2.35,2.35,0,0,0-1.41.9c-.92.78-3.43,1.74-4.22,2.7-1,0-.68.54-1.9.54-.43,0-1.71.9-2.76.9-1.22,0-2.93.18-4.89.18-1.47,0-5-.6-5.88-1.62a3.87,3.87,0,0,1-2.75-1.32c-.06-.42.12.9-1.41-1-.49.78-2.08-2.1-3.3-2.7C55.47,43.32,54.06,43.38,54.06,42.42Zm0-4.56c0,.42,0,.9.49.9C54.55,38.28,54.55,37.86,54.06,37.86Zm9.79-2.16c0-.06-.12-.12-.43-.12a1.91,1.91,0,0,0-.24.66.22.22,0,0,0,.24.24C63.42,36.18,63.85,35.88,63.85,35.7Zm0,9c-.24,0,.25-1,.25-1.44s-.25-1-.25-1.26c.18-.3.25-.42.25-.54s-.37-.06-.68-.42c.55.12.68-.3.68-.42a.64.64,0,0,0-.25-.48,1.47,1.47,0,0,0-.43,1.2c0,.54.12,1.14.12,1.8a7.35,7.35,0,0,1-.12,1.14C63.85,44.28,63.42,44.7,63.85,44.7Zm-.18,2.58c-.06,0-.13.06-.25.24s.19.6.31.6.12-.06.12-.18C63.85,47.64,63.85,47.28,63.67,47.28Zm.73-9.42c-.37-.42-.73.66-.73,1.5v.12c.06,0,.12-.06.18-.24C64,38.52,64.4,38.7,64.4,37.86Zm8.88-3.66a19.86,19.86,0,0,0,1.83-2.34c-.18-.48.37-1.92.37-2.4a.92.92,0,0,0-.37-.72,1,1,0,0,1,.19-.54c0-.06-.68.06-.68-.9,0-.42,0-.42-.49-1,.13-.78-1.34-1.14-1.34-1.74-.25,0-1.29.36-1.41-.54-2.33,0-4.35.48-4.22,1-1,.12-.86.84-1.41,1.32-.74-.24-.49.6-.49,1,.06.12-.86-.18-.86,2.28a4.82,4.82,0,0,0,1.84,4.14c.18,1,.06.06.92.9,0,0,0-.18.12-.18a.55.55,0,0,1,.3.18c-.24.54,2.09.78,2.39,1,.74,0,.86-.6,1.78-.6a3.84,3.84,0,0,1,1,.18c0,1.44-1.41,1.8-1.41,2.7a1.8,1.8,0,0,0,1.41.42,3.16,3.16,0,0,0,.36-1.56,3.32,3.32,0,0,0-.36-1.56C73.28,34.62,73.28,34.62,73.28,34.2Zm-8,3.66c0,.72,0,1.5.24,1.5a.3.3,0,0,0,.25-.12C65.75,38.76,65.75,37.86,65.26,37.86Z" transform="translate(0 -8.82)"/>
    <path class="cls-2" d="M108.1,26.58c-.19.18-.25.3-.25.36s.25.3.25.6c0,1.32-.31,3.42.49,4.14,0,0-.25.24-.25.36s.37.36,1.17,1c0,.9.91,1.38,1.89,1.86,0,0,.19-.18.31-.18a2.66,2.66,0,0,0,1.1.3c5.08,0,3.43-3.36,5.14-7.08,0-1.38-.43-2.82-.43-4.2,0-.84.43-1.86.43-3.24,0-.9-.43-1.8-.43-2.76S118,15.9,118,15c0-1.26-.18-2.46-.18-3.6,0-1.8.49-1.92,2.08-1.92,8.81,0,9.24-.12,11.08-.12a2,2,0,0,1,2.2,1.92c0,.48-.49.48-.49,1s.49.9.49,1.86c0,.42-.49.9-.49,1.8a1.67,1.67,0,0,1,.49,1c-.18,0-.24,0-.24.06a1.42,1.42,0,0,1,.24.84c0,.66-.24,1.26-.24,1.86a1.69,1.69,0,0,0,.24.9c0,.48-.49.48-.49,1v5.58a8.34,8.34,0,0,1,.37,2.7,15.66,15.66,0,0,1-.37,3.3,14.86,14.86,0,0,1-.49,4.62c0,1.68-.92,3.72-.92,4.14,0,1.5-.36,1.74-1.41,2.82,0,1.44-2.93,2.16-2.81,3.24-1.1,0-1.53,1.08-3.12,1.08-1.1,0-2.14-.24-3.25-.24-2.87,0-1.28,1.14-2.2,1.92-1.41.48-3.3,0-5.2.48-1.35,0-2.94-.48-5.14-.48h-2l-.49-.42c-1.53,0-1.9-.36-4.71-1.38-.68,0-.25-.9-.92-.48.06-.78-.8-.3-1.41-1a.44.44,0,0,0-.49-.42s-.18.18-.3.18-.13-.06-.13-.18c-.79-1.56-2.87-1.26-2.87-4.14-.43,0-2.33-2.94-2.33-9.3a.48.48,0,0,1,.49-.48.48.48,0,0,1-.49-.48A4.25,4.25,0,0,0,93,31.2h-.49v-5A12.68,12.68,0,0,0,93,21.9s-.49,0-.49-.42c-.24-.9.37-1.26.37-1.44a2.5,2.5,0,0,0-.37-.9A17.59,17.59,0,0,0,93,16.86c0-1-.49-1.86-.49-2.76A19,19,0,0,1,93,11.76V9.48A74.65,74.65,0,0,1,103.32,9c1.9,0,3,.48,4.78.48ZM122.6,13.8a.61.61,0,0,0,.55-.66c-.49,0-.91,0-.91.48A.52.52,0,0,0,122.6,13.8Zm.55,4.92c-.36,0-.91.24-.91.36s.12.06.42.06C122.66,19.14,123.15,19.14,123.15,18.72Zm-.3,1.5c.18,0,.24-.06.24-.12s-.12-.12-.3-.12a.91.91,0,0,0-.55.12A1.34,1.34,0,0,0,122.85,20.22Zm-.06,4.32c.06,0,.18-.06.36-.24,0,0,0-.54-.49-.54,0,.54-.42,0-.42.54C122.54,24.3,122.6,24.54,122.79,24.54Zm.24-6.06c.12,0,.12-.24.12-.24-.3,0-.42-.18-.49-.18v.18C122.85,18.42,122.91,18.48,123,18.48Zm-.37,20.4c.37.66.07.66.49.66C123.15,38.88,123,39.3,122.66,38.88Zm.68,7.8c.18,0,.43-.18.43-.36s-.07-.18-.13-.3a.48.48,0,0,1-.49.48C123.15,46.62,123.21,46.68,123.34,46.68Zm.73-22.92s-.18-.18-.3-.18-.13.3-.13.72C123.64,24.3,123.64,23.76,124.07,23.76ZM126.76,25c0-.06-.06-.12-.24-.24a.22.22,0,0,1,.06.18c0,.3-.73.6-.73.72H126C126,25.26,126.76,25.2,126.76,25Zm1.17-10c.49,0,.49-.9.85-1.86a1,1,0,0,1-.3.12c-.37,0,.18-1-.55-1,0,.6-.25,1-.25,1.38a.6.6,0,0,0,.25.48ZM129,35.52c0-.18-.18-.48-.31-.48s-.24.06-.3.3c.36,0,.36.48.36.48C129,35.82,129,35.7,129,35.52Zm.43-8.4c-.06,0-.12.12-.12.42.12,0,.12,0,.12.06s-.12.18-.12.24.12.12.48.12C129.82,27.66,129.58,27.12,129.46,27.12Zm.36,6.84a.65.65,0,0,1-.12-.42c0-.3.55-.12.55-.48h-.91C129.34,33.54,129.34,34,129.82,34Zm0,1v-.48c-.24.24-.48-.48-.48.48ZM129.34,41c0,.36,0,.36.48.36C129.82,41,129.82,41,129.34,41Zm1.4-14.82c-.92,0-.92,0-.92.42C130.25,26.58,130.25,26.58,130.74,26.16Zm.49,1.38c-.49,0-1,0-1,.42C130.74,28,131.23,28,131.23,27.54Zm0,6.9c-.36,0-.67,0-.67.18a.55.55,0,0,0,.18.3A.48.48,0,0,0,131.23,34.44Zm.19-4.26a1,1,0,0,0-.19-.36c-.49.48-.49.48-.49,1C131.23,31,131.42,30.36,131.42,30.18Z" transform="translate(0 -8.82)"/>
    <path class="cls-2" d="M170.71,16.44l.06.42c-1.23.18-1.9,2.82-2.45,2.88a.63.63,0,0,1,.18.36c0,.06-.06.12-.18.12.43-.42-1.16,1.32-1.16,2.4a.73.73,0,0,1-.49-.18v.18c0-.18-.8,1.86-1.66,1.86l-.91.12c-.49,0-.49,0-.92-.36l-.43.06a1.68,1.68,0,0,1-.61-.9s-.19.24-.31.24-.12,0-.12-.18c-.06.06.06-.06-.86.06a5.75,5.75,0,0,0-2.57-.6H158a1.21,1.21,0,0,0-.74-.24c-.24,0-1.28.36-1.28.9,0,1.2,1.1.48.73,1.2l.49-.06c0,.06.06.36.49.36l.49.48,1-.12c.73.72.86.72,1,1.26a4.45,4.45,0,0,0,.92-.06s.55.84,1,.84l.42-.06.07.42h.3c.31,0,1.9,2,3,2,.18,1.38,1.35,1,1.65,3.06l.49-.06s-.24.06-.24.18.18-.18.3.72c0,.3,1.53,2.88,1.53,4.74a4.54,4.54,0,0,1-.06.9v.48a11.66,11.66,0,0,1-.67,3.18c0,.6-.8.84-.8,1.38-1.1,1.32-1.59,1.86-2.08,2.4a1.37,1.37,0,0,0-.85.54c.06.6-3.06.9-4.35,2.7-.31,0-.61-.18-.92-.18a.52.52,0,0,0-.49.3c-1.53.12-3.18.6-4.46.78,0-.42,0-.42-.43-.42a1.63,1.63,0,0,0-.92.54c-.37,0-1.1-.24-1.9-.24s-1.16.12-2.26.12a23.31,23.31,0,0,1-4.1-.6c-1.41,0-1.6.24-1.84.12-1.22-1-2.82-.54-3.79-1.5l-.92.12c-.61-.9-2.08-.66-2.08-1.86,0-1,.91-1.86,1.22-3l-.06-.48a.42.42,0,0,0,.43-.42c-.06-.42-.06-.42-.12-.9l.49-.06a4.44,4.44,0,0,0-.07-1H139a6.79,6.79,0,0,1-.06-.84c.55-.18.74-1.86,1.16-1.92a4.56,4.56,0,0,1-.06-.84,3.08,3.08,0,0,1,.31-1.38,1.69,1.69,0,0,0,1-.54l-.06-.48a2.46,2.46,0,0,1,.91-.18c1.41,0,2.58.78,3.31.78.12,0,.24-.06.37-.06a2.78,2.78,0,0,0,2,.36,1.07,1.07,0,0,0,1.16-.6c-.12-1.32-.61-1.68-1.59-2.52-1.35-.42-1.23-1.08-2-1.74a5.74,5.74,0,0,1-2.88-1.5c0-.9-2.81-1.68-3.18-4.2-.49,0-1.53-2-1.53-2.64-.06-.06-.24-2.58-.37-4,.13.12.8-.72.8-1.74,0-.06,1.1-3.78,2.45-3.9,0-.9,1.4-1.86,2.93-2.46-.3-.42.92-.84,2.15-1.5.3,0,.73.06,1.1.06.55,0,1.35-.36,7.59-.78a12,12,0,0,0,1.47.24c.43,0,.91-.06,1.34-.06a5,5,0,0,1,1.84.36l.43-.06c.92-.06,1,.66,2.2.66a6.41,6.41,0,0,0,1-.06c-.12-.06.49,1.08,2.2,1.08a10.72,10.72,0,0,0,3,1.2c1.9,1.44,2.82,1.32,3.43,2.4C171.5,15.72,170.71,15.9,170.71,16.44ZM149.28,20a.52.52,0,0,0-.24-.42c0,.42-.31.42-.31.9A.53.53,0,0,0,149.28,20Zm.49,9.72c.37,0,.62-.12.62-.3s-.68-.36-.86-.36c-.37,0-.61.18-.61.42A1.53,1.53,0,0,0,149.77,29.7Zm0-14.16c0-.06,0-.06-.06-.06.37,0-.61,0-.61.48h.12A3.35,3.35,0,0,0,149.77,15.54Zm.37,6.12c-.67.12-.86.12-.86.48a1.78,1.78,0,0,0,.07.54C149.83,22.62,149.77,22.14,150.14,21.66Zm.67,1.86c-.49.48-1.34.12-1.34.54C150,24,150.81,23.94,150.81,23.52Zm.31,21.78c0-.24-.06-.48-.18-.48l-.13.12a6.4,6.4,0,0,0,.07.9C151.06,45.84,151.12,45.54,151.12,45.3Z" transform="translate(0 -8.82)"/>
  </g>
  <g class="cls-1">
    <path class="cls-2" d="M41.58,62.29l.75.72a5.06,5.06,0,0,1-.75,3.2c0,2.16.33,4.56.33,6.88a15.32,15.32,0,0,1-.33,3.36,5.15,5.15,0,0,0-1.93-.32c-2.69,0-5.46.32-8.74.32,0,0-9.24-.4-9.24.56,0,2,0,2.16.59,2.16.42,0,.92-.24,1.26-.24a.71.71,0,0,0,.75.72H41c.59,3,.59,8.24.59,12.72,0,.48.33,1.28-.59,1.2a2.09,2.09,0,0,1,.42,1c0,.56.08,1-1.68,1-.59,0-3.11.32-4.12-.72-.58,0-1.93.72-3.27.72-3.36,0-3.45-.72-5.38-.72-2.1,0-3.44.72-5.29.72a13.68,13.68,0,0,0-.25,2.56c0,2.08.42,4,.42,6.08a11.27,11.27,0,0,1-.51,2.64,2.06,2.06,0,0,0,.34.72c0,1.44.17,6.4-2.1,6.4-.67,0-1.26-.64-2-.64.26,0,.34.08.34.16s-.34.48-.34.48c-1.34,0-2.1-.64-2.68-.64-1.26,0-2.61.64-3.95.64a54.75,54.75,0,0,1-10.67-.64c.08-.8.17-1.6.17-2.4,0-2.48-.42-4.8-.42-7.28,0-1.36.08-4.32.84-4.32,0-.56-.59-.56-.59-1.92,0-.56.59-.56.59-1.28-.84-.8-.59-3.68-.59-7,0-.48.59-1.2.59-1.92H.25a3.77,3.77,0,0,1,.59-2.48V78.37c-.59,0-.59,0-.59-.72s0-1.2.59-1.2c0-.48-.25-.64-.25-.88,0-.4.25.24.25-1.12a13.29,13.29,0,0,1-.25-2.64c0-1.92.25-3.92.25-5.6s-.25-3-.25-4.56a11.51,11.51,0,0,1,.25-2.4,21,21,0,0,1,5.54-.56c1.85,0,3.87.08,5.8.08a34,34,0,0,0,4-.24c2.35,0,4.2.32,6.13.32a9.08,9.08,0,0,0,2.52-.32c14.37,0,8.32-.24,12.43-.24a2.24,2.24,0,0,1,1.1.24c.92,0,1.42-.24,1.93-.24a1.15,1.15,0,0,1,.67.24C41.91,59.65,41.58,61.09,41.58,62.29Z" transform="translate(0 -8.82)"/>
    <path class="cls-2" d="M68.71,61.49c0,2.16-.59,4.4-.59,6.88,0,.72.59,1.36.59,2.64,0,2-.59,5.52-.59,8.8,0,.64.59.64.59,1.36,0,1.28-.59,2.56-.59,4.4,0,1.28.25,2.56.25,3.84a7.44,7.44,0,0,1-.25,1.92,28.25,28.25,0,0,1,.25,4.8c0,2.08-.25,4.4-.25,6.56,0,8.64.25,6.4.25,8.64,0,.16-.08.32-.25.32-.17-.48.51,2.24-2.18,2.24-1.09,0-2.19-.32-3.11-.32-3.19,0-6.89.32-10.42.32a32.09,32.09,0,0,1-4.95-.32,9,9,0,0,1-.34-2.56c0-3.36.34-7,.34-10.16a20,20,0,0,1-.34-2c0-.64.34-.8.34-1.84,0-.4-.34-.8-.34-1.2a1,1,0,0,1,.34-.72c0-1-.34-1.68-.34-3,0-4.08.34-5.28.34-9.6,0-1.28-.51-2.24-.51-3.2a2.09,2.09,0,0,1,.51-1.36c0-5-.34-15-.34-16.56a2.39,2.39,0,0,1,.34-1.2c-.67-.72.75-.4.75-1.92a40.42,40.42,0,0,0,4.46.24c3.94,0,8-.4,11.67-.4,1.35,0,2.61.08,3.78.16A9,9,0,0,1,68.71,61.49ZM51,82.21c0-.16-.26-.32-.51-.32s-.5.16-.5.32c0,.4.5.24.84.24C50.9,82.37,51,82.29,51,82.21Zm.5,5.84c0-.56,0-1.2-.67-1.2v1.2Zm1.26-17c-.34,0-.42.08-.42.08s.34.24.67.24.51-.08.51-.32Zm.59,11.76c0-.56-.25-1-.59-1a1.9,1.9,0,0,1,.17.64c0,.64-.59,1-.59,1.2s.08.16.42.16S53.34,83.25,53.34,82.77Zm.25-17.92c.5,0,.5-.4.5-.8,0,0,0-.72-.58-.72,0,1.28-.76.72-.76,1.28A2.83,2.83,0,0,0,53.59,64.85Zm.67,2.64c0-.32-.67-.56-1.09-.56-.25,0-.42.08-.42.24l1.34.56C54.18,67.65,54.26,67.57,54.26,67.49Zm-.17,1.6c-.58,0-.58,0-1.34.64C53.51,69.73,54.09,69.73,54.09,69.09ZM53.42,79c-.17,0-.33-.08-.67-.4a.67.67,0,0,0,.67.72c.25,0,.51-.16.51-.32s-.17-.24-.42-.4C53.51,78.93,53.51,79,53.42,79Zm-.67,6.56c1.6,0,1.18-.4,1.34-.64-.42,0-.58-1-.92-1-.08,0-.25.16-.42.48,0,0,.76,0,.76.56C53.51,84.93,52.75,84.93,52.75,85.57Zm1-13.2c.25,0,.33-.88.33-.88-.25.32-.92.32-.92.64,0,.08.08.08.34.08C53.59,72.29,53.67,72.37,53.76,72.37Zm1.59,8.8a2.39,2.39,0,0,0-1.84.56A2.39,2.39,0,0,0,55.35,81.17ZM53.51,90s0,.64.58.64C54.09,90,54.09,90,53.51,90Zm1.26-2.24c.33,0,.58-.16.58-.32s-.16-.32-.58-.56c0,.64-.68.64-.68.64A1,1,0,0,0,54.77,87.73Zm.58-23.68c-.58,0-.58,0-.58.56C55.35,64.61,55.35,64.61,55.35,64.05Zm.76,9.52h-.76a3.4,3.4,0,0,0,1,.24c.25,0,.42-.08.42-.24ZM55.77,71s1.26-.08,1.26-.4c0-.08-.33-.4-.25-.56v1h-1Zm1.6,41.28v-.64c-.34.32-.59-.64-.59.64Zm2.77-19.76c0-.16-.08-.24-.25-.24-.34,0-1,.48-1,1C60.14,93.25,60.14,93.25,60.14,92.53ZM60.39,65a1,1,0,0,0-.84-1c0,.56,0,1.2.59,1.2C60.31,65.25,60.39,65.17,60.39,65Zm.76,6.56c.25,0,.42-.16.42-.56a2.06,2.06,0,0,0-1.09-.56,1.3,1.3,0,0,0-.93.56C60,71,60.73,71.57,61.15,71.57ZM60.14,99c0,.08.42.16.76.16s.67-.08.67-.24C60.31,98.93,60.14,98.93,60.14,99Zm.25-17.76v.08a2.55,2.55,0,0,0,1.18-1.52.67.67,0,0,1-.76.64A2.14,2.14,0,0,0,60.39,81.25Zm1.18-4.56c-.5,0-1-.08-.76.56C61.32,77.25,61.82,77.41,61.57,76.69Zm0-11.44s-.5-.8-.67-.8-.09,0-.09.8ZM62,73.33c0-.32,1.43.16,1.43-.48a.94.94,0,0,0-.59-.24c-.42,0-.84.24-.84.56,0,.16.08.24.17.4C62.07,73.49,62,73.41,62,73.33Zm0,13h.17s.67-.72,1.26-.72C63.42,85.57,62,86.13,62,86.29Zm2.18-11.2c-.58.8-1,.72-1,.88a4.67,4.67,0,0,0,1.09-.56c0-.08,0-.08-.09-.08Zm.68,5.36c-.76-.16-.76.16-.68.72C64.85,81.41,64.93,81,64.85,80.45Zm0,13.44h-.68v.56C64.51,94.21,64.85,95,64.85,93.89Zm1.26-26.16h.75c-.33,0-.42-.08-.42-.16,0-.24.76-.72.76-.88s-.09-.16-.34-.16c0,.64,0,.64-.75.64Z" transform="translate(0 -8.82)"/>
    <path class="cls-2" d="M111.46,80.13c-2.26,0-2.68-1.84-6.63-1.84v-.64c-1.51,0-5.21,1.92-5.8,2.48-.59-.4-2.1,1.92-2.52,1.92,0,1.68-.67,1-.67,1.76,0,1.68-.5,2.72-.5,4,0,1.84,1.17,2.16,1.17,3.44,1.26-.32,1.68,2.88,3.19,2.48a7.9,7.9,0,0,0,4.62,1.92c1.1,0,4.46-.64,4.46-1.92,1.42,0,1.17.16,2-.56.34.24-.75-.64,2.52-.64a1.34,1.34,0,0,0,1.35,1.2,4.7,4.7,0,0,1,1.26,2.56,22.46,22.46,0,0,1,3.1,2.4,1.61,1.61,0,0,0-.16.48c0,.48.16-.48.16.8-.08,0,3.45,2,3.45,3,0,1.76,1.85,1,1.85,2.4s-2,2.56-3.28,3.76c-2.35,0-1.93,2.4-4.45,2.4-.51,0-1.85.8-1.93,1.36h-2c-1.85,1.36-6.8,1.12-11,1.12a19.69,19.69,0,0,1-6.47-1.12c-1.51,0-2.94.32-2.61-.64-2.43.08-.58-1.36-3.19-1.36-4.2-2.88.76,1.84-7.05-5.52a62.65,62.65,0,0,1-4.62-6.08c-.68-1.28-.68-2.4-1.35-3,.42-2.24-1.68.88-1.68-10.48,0-4.08.25-7.92,2.35-9.92a3.75,3.75,0,0,1,1.35-3.12c-.76-.8,1-1.28,2.52-4.32.67-.64,1.43-.64,1.43-1.28,0-1.2,1.17.08,1.17-1.76,1.26,0,1.09.24,3.36-1.92.09,0,1.77-1.12,1.93-1.2s2-1.36,2.44-1.28c.25.24,1.93-1.28,4-1.28,2-1.44,4.37-1.12,6.47-1.12A2.37,2.37,0,0,1,103,58c3.44,1.68,7.64-.16,12.35,2.4h.59c.67,0,.67.64,1.34.64,0,.48,3.28,1.36,3.28,3.52,0,1.36-1,2.24-1.52,3.28-.25,1.44-.42,1.2-.42,2-1.26,0-.5,1-1.34,1.76a.59.59,0,0,0-.67.56c.33-.16-1.93,2.08-1.93,3.76-1.52.56-1.35,1.76-2,2.4C112,79.57,112,80.13,111.46,80.13ZM79.21,93.49c0-.08-.09-.16-.17-.32-.5,0-1.26.56-1.26,1,0,.16.17.24.59.24C78.37,93.89,79.21,93.73,79.21,93.49ZM83,80.77H81.56c.59,0,.67.8,1.09.8.09,0,.17,0,.34-.16Zm.08,19.68c0-.48-.08-.88-.08-1.12.59-.72,1.18-1.36,1.18-1.92,0,0-1.18,0-1.18-.48h.33c-2,1.52-.33,3-1.76,5.44C82.82,102.37,83.07,101.41,83.07,100.45Zm0-4.48c0-.16.25-.32-.75-.32.25,0,.42.08.42.24s-.59.72-.59,1c0,.08,0,.08.17.08C82.32,96.45,83.07,96.29,83.07,96Zm0,7.36a.61.61,0,0,0-.5-.56c-.17,0-.25.08-.25.24.67,0,0,.64.67.64A.48.48,0,0,0,83.07,103.33ZM83,78.93a1.35,1.35,0,0,0-.51,1,.39.39,0,0,0,.42.4.94.94,0,0,0,.59-.16C83.49,79.33,82.57,79.81,83,78.93Zm.5,16.72c1.09.8.51-2.32,1.35-3.12-.67,0-1.35,0-1.35.64Zm2-12.32c.5,0,.25,1,.33,1s.17-.16.34-.48c0-.48-.67-.48-.67-1.12a.64.64,0,0,0,.67-.64c0,.64-1.34.64-1.34.64C84.84,83.33,84.84,83.33,85.51,83.33Zm.67-11.2A3,3,0,0,0,86.85,74C86.18,73.25,86.85,72.13,86.18,72.13Zm29.15,31.52a.57.57,0,0,0-.42-.16c-.34,0-.51.32-.51.64a.88.88,0,0,0,.26.64C114.66,103.65,115.33,104.13,115.33,103.65Zm-.67-.64c.42,0,1.17-.88,1.17-1.44s-.25-.48-1.17-.48Z" transform="translate(0 -8.82)"/>
    <path class="cls-2" d="M149.94,75.33a2.9,2.9,0,0,1,1.34-.56c.42,0,1.76.24,3,.24.93,0,1.85,0,1.85-1,0-.64-.25-1.52-.25-2.4,0-.64.59-.64.59-1.28,0-2.08-.59-4-.59-4.88a29.8,29.8,0,0,1,.59-3.2c0-.88-.25-1.68-.25-2.24,0-1.52,3.52-1.6,5.37-1.6,1.68,0,3.45.08,5.29.08,2.1,0,5-.24,8.49-.24a4.6,4.6,0,0,1,1.51.24V79.09a9.66,9.66,0,0,1,.59,4.32s-.59,0-.59.72.25.8.25,1.36c0,6.32-.5,11.68-.5,15.44,0,1.92.08,3.76.08,5.76a24.71,24.71,0,0,1-.59,6c-3.19,0-7.22.72-10.41.72a19.12,19.12,0,0,1-2.52-.32c-.34,0-.59.32-1.43.32,0-.16-1.34.48-2-.72l-.58.72c-1.18,0-3.28.08-3.28-2.56h.59c.17-1.12-.59-1.2-.59-4.4,0-1,.59-1.76.59-2.48,0-1.12-.59-2.4-.59-3a23.56,23.56,0,0,1,.59-3.2c0-1.92-.59-3.76-.59-5a2.46,2.46,0,0,0-2-.64c-.58,0-1.26.64-1.93.64-.42,0-1.43-.24-2.27-.24-1.59,0-1.59,1.44-1.59,2.16,0,.4.25,1.12.25,1.68,0,1-.5,2.56-.5,4.24,0,1.92.08,4.16.08,6.24a20.39,20.39,0,0,1-.59,5.84,34.23,34.23,0,0,1-6.63.4c-4,0-8.74.56-11.43.56a4.71,4.71,0,0,1-1.59-.24,16.69,16.69,0,0,1-.59-5c0-2.08.25-4,.25-6.56s-.25-5.36-.25-7.84c0-1.2.59-3,.59-5-.59-.56-.59-.56-.59-1.28,0-1.2.59-2.48.59-4.32-.59-.56-.59-.56-.59-1.2s.59-1.28.59-1.84a2.67,2.67,0,0,1-.59-1.28c0-.64.59-1.2.59-3,0-1.28-.59-1.92-.59-3.2a2.57,2.57,0,0,1,.59-1.92c0-1.76-.17-3.6-.17-5.52a17.74,17.74,0,0,1,.92-6.24,7.23,7.23,0,0,1,3.87-.8c1.34,0,2.68.08,3.94.08,3.87,0,7.9,0,9.92-.56,2.1,0,1.93.32,1.93,2.48.17,0,.25,0,.25.08a2.41,2.41,0,0,0-.25,1.2c0,3.68.25,7.12.25,10.64a12.28,12.28,0,0,1-.25,2.48C148.09,75.33,149.35,75.33,149.94,75.33Zm-16.3,6.24s0,1.28.59,1.28C134.23,82.21,134.23,81.57,133.64,81.57Zm5.63-9.6c0,.08.08.16.25.32,0,0,1.26,0,1.26-.72C140.28,71.57,139.27,71.57,139.27,72Zm1.51-7.84c-.67,0-1.26,0-1.26.56C140.78,64.69,139.6,64.13,140.78,64.13Zm-.84,7a1.21,1.21,0,0,0,1-.64.18.18,0,0,0-.17-.16c0,.64-1.26,0-1.26.64C139.6,71.09,139.77,71.09,139.94,71.09Zm-.42,2.32a.56.56,0,0,0,.59.56c.33,0,.67-.16.67-.56Zm1.93,5c-.67,0-1.93,0-1.93.64C140.19,79.09,141.87,79.25,141.45,78.45Zm-.84,20.64c0,.24-.67-.4-.92-.4-.09,0-.17.08-.17.32h.59v.56C140.44,99.33,140.61,99.17,140.61,99.09Zm2.1-20.24c0-.08-.17-.16-.5-.4l-.76.64C142,79.09,142.71,79.09,142.71,78.85Zm-.42,13.92c0-.08,1.85.32,1.85-.64h-.67C143.47,92.61,142.29,92.77,142.29,92.77Zm3.61-12.64c0-.16-.16-.32-.5-.48,0,.56-.76,1-.76,1.2s0,.08.17.08C144.81,80.53,145.9,80.45,145.9,80.13Zm5,1.76c0-.08-.08-.16-.17-.32,0,0-1.17.4-1.17.56s.08.08.42.08C149.94,82.21,150.86,82.21,150.86,81.89ZM152,86.53c-.67,0-.67.64-.67,1.2C152,87.73,152,87.17,152,86.53Zm.93-3.84c0,.24-.59.08-.59.56,0,.24.5.08.5.24s-.17.32-.17.4.17.24.68.24c0-1.28,0-1.28.58-1.92-.58,0-.58-.64-.58-.64l-.68.64S152.88,82.53,152.88,82.69Zm1,2a.56.56,0,0,0-.58.56A.55.55,0,0,0,153.88,84.69Zm1.35-3.76c-.59,0-1.35,0-1.35.64C154.64,81.57,155.23,81.57,155.23,80.93ZM160,92.37c0-.32-.09-.64-.17-.64s-.09,0-.09,1h0C160,92.77,160,92.53,160,92.37Zm0-26.8c.16,0-.17-.88.42-.88-.68,0-.68,0-.68-.56a3.69,3.69,0,0,0-.25.72c0,.24.25.08.25.56C159.85,65.49,159.93,65.57,160,65.57Zm.42.4-.68.56C160.44,66.53,160.44,66.53,160.44,66Zm.67,5.6a.65.65,0,0,1,.67-.64,5.26,5.26,0,0,1-1.76-.56c-.17,0-.26.16-.26.56A2.42,2.42,0,0,0,161.11,71.57Zm0,5s-.67,0-.67.56C161.11,77.17,161.11,77.17,161.11,76.61ZM163,72.29c-.59,0-1.43.32-1.43.8a.31.31,0,0,0,.17.32C161.78,72.85,163,73.41,163,72.29Zm0,13c-.67,0-1.26,0-1.26.64C162.37,85.89,162.37,85.89,163,85.25Zm.84-10.16c-.17,0-.17.24-.17.24a5.31,5.31,0,0,0-.75.56s1.51-.56,1.42-.56A1.34,1.34,0,0,0,163.88,75.09Zm.5,18.32h-.67V94C164.64,94,164.38,94.29,164.38,93.41Zm2.27-22.08a1,1,0,0,0,1-1c-1.34,0-1.34.64-1.93.64A1.38,1.38,0,0,0,166.65,71.33Zm-.59-7c0,.16-.25.32,1.6.32,0-.4.25-.8.25-1.2a1,1,0,0,0-.25-.64c-.59.48-1,.56-1,.88a.77.77,0,0,0,.25.4C166.48,64.13,166.06,64.13,166.06,64.37Zm.84,19.76s-.33-1.12-.5-1.12c.17,0-.34.48-.34.64s.34.64,1.6,1.6C167.66,84.69,166.9,84.69,166.9,84.13Zm-.75,12.64c0,.16.08.16.25.16s.5-.08.5-.4C166,96.53,166.15,96.69,166.15,96.77Zm.75-22.64v-.72c-.92,0-.58-.32-.58.72Zm.76,20.56c-.5,0-1-.08-.76.56C167.41,95.25,167.91,95.41,167.66,94.69Zm.25-21.6a.26.26,0,0,0-.25-.24c0,.56-.76.56-.76,1.28A1.21,1.21,0,0,0,167.91,73.09Zm-.25,35.28v-.64c-.42.32-.76-.64-.76.64Zm0-41.2h0c0,.4-.34.32-.34.32s.09.08.34.32Zm.59,15.68h-.59v.56C168,83.17,168.25,84,168.25,82.85Zm0,4.88c0-.56.67-1.2.67-1.84-.67,0-.67.64-1.26.64C168.25,87.17,167.66,87.73,168.25,87.73Zm-.17,21a.38.38,0,0,0-.42-.32v.56C167.91,108.93,168.08,108.77,168.08,108.69Zm1.76-16.16h-.16a4.73,4.73,0,0,0-1.52.24,1.25,1.25,0,0,0,.68.32.91.91,0,0,0,.67-.32C169.76,92.69,169.84,92.61,169.84,92.53Zm-.92,5.76c-.34,0-.42.08-.42.08,0,.16.25.24.59.24.17,0,.42-.08.42-.32Zm.42-19.68c0-.16-.08-.32-.17-.32-.33,0-.25.4-.25.8A.46.46,0,0,0,169.34,78.61Zm.76-7.84c0-.16-.17-.24-.59-.48a.36.36,0,0,1,.25.08c0,.16-.84.56-.84.56C169.34,70.93,170.1,70.93,170.1,70.77Zm-.84,11a1.28,1.28,0,0,0,.25.48.59.59,0,0,0-.59.64h1.34c0-.64,0-1.28-.75-1.28C169.34,81.57,169.26,81.65,169.26,81.73Zm1.59,5.36c0-.16-.17-.32-.59-.56,0,.64,0,.64-.75,1.2C170,87.73,170.85,87.49,170.85,87.09Zm.76-2.4c-.76,0-1.35,0-1.35.56C170.85,85.25,171.61,85.25,171.61,84.69Zm.84-2.72c0-.24-.17-.4-.84-.4,0,.64,0,.64.67,1.28a2.19,2.19,0,0,0-.59-.16,1.21,1.21,0,0,0-1.09,1.12c0,.24.08.32.25.32C170.85,83.17,172.45,83.57,172.45,82Zm.5-2.88c-.67-.64-.67-1.2-2.1-1.2,0,1.2,1.43.56,1.43,1.2H173Zm-1.51,2c.17.16.08-.72,1.51-.72h-.67C171.86,80.69,171.44,81.09,171.44,81.09Zm1.26-8.72a.3.3,0,0,0,.34-.32c0-.24-.26-.64-.51-.64-.08,0-.17.08-.25.16C172.28,72.05,172.11,72.37,172.7,72.37Zm.25-7c0-.48.59-.88.59-1.12,0-.08-.17-.16-.59-.16,0,.56-.67,0-.67.56A.67.67,0,0,0,173,65.41Zm0,1.76c-.67,0-.67,0-.67.64A.64.64,0,0,0,173,67.17Zm-.25,1.36c-.08,0-.25.16-.42.48v-.16s.08.88.67.88C173,69.25,173,68.53,172.7,68.53Zm2.35,11.52a.5.5,0,0,0-.17-.4c-.58,1.28-1.93.72-2.6,1.92C173.54,81.57,175.05,80.69,175.05,80.05Zm-1.85,4.24c0-.08-.08-.16-.25-.16,0,.4-.33.48-.33.72,0,.08.08.24.33.4C173,84.85,173.2,84.53,173.2,84.29Zm1.1-10.16a2.09,2.09,0,0,0-1.35.64C173.54,74.77,173.54,74.77,174.3,74.13ZM173,89.65c0,.48.25,1.2.42,1.2s.17-.16.17-.56C173,90.29,173.54,89.65,173,89.65Zm1.35-2.48c-.51,0-1.26.32-1.26.48s.08.08.5.08Zm-.42,5.36c.16,0,.25-.16.25-.32s-.09-.4-.25-.4-.17.08-.34.32C173.71,92.45,173.79,92.53,173.88,92.53Zm1.68-21H174.3c.08.16.16.24.16.4,0,.4-.42.64-.42.8s.09.08.26.08C174.3,72.29,175.56,72.29,175.56,71.57Zm-1.26,1.84h0Zm.92-8.64c0-.48.34-.88.34-1.28-.42,0-.76.64-.76,1.2,0,.4.17.72.76.72A.91.91,0,0,1,175.22,64.77Zm.17,5.92a1.42,1.42,0,0,0-.51.24.3.3,0,0,0,.34.32c.17,0,.5-.16.5-.24s-.08-.08-.16-.08C175.56,70.69,175.47,70.69,175.39,70.69Z" transform="translate(0 -8.82)"/>
    <path class="cls-2" d="M228.14,59.25a6.45,6.45,0,0,1,.42,2.32,10.2,10.2,0,0,1-.42,2.64c0,.48.25.64.25.88,0,.4-.25-.24-.25,1.12,0,1.12.25,2.64.25,3.28,0,3.76-.59,2.88-.25,3.68,0,0,.25.24.25.4s-.08.16-.25.16c0,3.2-.34,2.72-2.52,2.72-2.69,0-5.88-.4-9-.4-2.77,0-3.86.24-9.07.24l-.59.56c-.5,0-.92-.24-1.59-.24a3.43,3.43,0,0,0-1.1.24c.17,0,.26-.08.26-.16s-.26-.4-.26-.4a3.16,3.16,0,0,0-.58,1.52.86.86,0,0,0,.58.88c-.25.24-.33.4-.33.48,0,.24.5.24.92.24,3.45-.72,10-.72,14.62-.72a1.88,1.88,0,0,0,1.34.72c1.77,0,3.28-.32,4.62-.32a5.43,5.43,0,0,1,1.93.32c0,4,.17,8.72.17,11.92,0,2.72-1.85,3.44-3.61,3.44a1.83,1.83,0,0,1-1.76-.88c-.93,0-1.6,1.28-3.28.64a.67.67,0,0,0-.5-.24.24.24,0,0,0-.26.24c-1.17,0-3,.4-3.27-.64-.76,0-.76.64-1.35.64-1.26,0-3.19-.24-5.12-.24-1.34,0-4.87.16-4.87.88s-.34,2.8.59,2.8c4.78,0,11.92-.24,17.3-.24A1.35,1.35,0,0,0,222,98c.08,0,.25-.56,1.51-.56s2.94.32,3.86.32c0,1.2.76,3.12.76,5-.42.4-.59.56-.59.8s.17.56.59,1.12c0,1.28-.76,3.2-.76,4.4v4.48c-1.26,0-2.6.24-4.11.24-1.85,0-3.28-.24-6.47-.24-2.44.16-5.12.24-7.9.24-5.54,0-11.5-.24-17.22-.24-1.76,0-3.78.24-5.79.24a16.55,16.55,0,0,1-2.86-.24,9.31,9.31,0,0,1-.84-4.32c0-2.48.17-4.24.17-7.68a.59.59,0,0,0-.59-.64c0-3,.84-3.84.84-5.68,0-1.2-.25-1.92-.25-9.52,0-1.2.25-2.4.25-3.68,0-10.56-.25-15.44-.25-17,0-1.36-.08-6,1.34-6,.42,0,.93.32,1.35.32.67,0,1.34-.72,2-.72s1.26.72,2,.72c-.42-1,1.09-.72,1.93-.72,7,0,13.86.32,20.83.32,4.2,0,7-.4,13.61-.4A4,4,0,0,1,228.14,59.25ZM185.05,83.81c.33.24.67-.4.67,1.84a1.93,1.93,0,0,1-.67,1.28c0,1.2.67.16.67,1.92,0,1.52-.17,3.2-.17,4.8,0,.32.17.56.84.88a2.34,2.34,0,0,1-.25-1,3.09,3.09,0,0,1,.92-2.16.59.59,0,0,1-.67-.56c0-1.44-.5-1.36-.5-1.92,0-.32.17-.56.5-1.2a39.24,39.24,0,0,0-.67-6.64A9.9,9.9,0,0,1,185.05,83.81Zm.67,17.68s-.34.32-.5.32-.17-.08-.17-.32a1.9,1.9,0,0,0,.67,1.2c0,.48-.59.88-.59,1.28,0,.24.17.4.59.64,0-.64.67-.64.67-1.2,0-.88-.33-1.12-.33-1.44,0-.08.08-.24.33-.48,0,0,0-3.28-.59-3.28a15.84,15.84,0,0,0-.42,2.48A1,1,0,0,0,185.72,101.49Zm0,7.52v.32c0-1.2.08-3.36-.67-4.08C185.05,107.17,185.72,107.81,185.72,109Zm0-10.72a2.57,2.57,0,0,0,.5-1.84,2.94,2.94,0,0,0-.5-1.92c0,.4-.34,1.68-.34,2.72C185.38,97.73,185.47,98.13,185.72,98.29Zm1.34-31.52c-.84,0-1.34,1.68-1.34,2.56,0,0,0,1.36.42,1.36.92,0,.92-.72.92-1.36,0-1.52-.33-2.24.68-3.12,0-.88-.34-1.12-.34-1.44,0-.56.34.24.34-1.68-1,0-1,2-1,2.32A3.78,3.78,0,0,0,187.06,66.77Zm-1.34,5.68c.08.08.17.16.25.16.42,0,.42-1.44.42-1.44A1.93,1.93,0,0,1,185.72,72.45Zm2-11.92s0-.88-.42-.88c-.09,0-.17.08-.26.16Zm1.34,15.76h-.76a1.71,1.71,0,0,0,.84.24c.26,0,.42-.08.42-.16A1.21,1.21,0,0,0,189.08,76.29Zm9.83-22.24c.25,0,.59,1.28,1.59,1.28.51,0,1.68-.08,2.36-.08.33,0,.58,0,.58.08-.16-.56,5.21-.56,5.63-.56,0,0-.59.32-.67.56h1.34c.09-.24.26-.24.26-.24h.33c1.26-.8,2.52-3.44,2.94-4.4l.25-.32.09-.48.67-1.28v-.08c0-.24.25-.4.34-.8l2.43-5c.84-1.84,1.93-3.68,2.19-5.52-.84-.08-1.85-.08-2.86-.08-2,0-4,.08-5.54.08-.59,0-2.19-.08-3.78-.08-5,0-4,.4-5.13,2.4l-.25,1,.34.32a2.2,2.2,0,0,0-.76,1.6c0,.32.08.56.08.8,0,.64-.42,1-.5,1.44l-1.43,6.72C199.41,52.37,199.08,52.61,198.91,54.05ZM201,83.81c0-.56,0-.56-.76-.56,0,0,0,.72.34.72A.47.47,0,0,0,201,83.81Zm0,11.92a1.39,1.39,0,0,0-.17.72c0,.24.08.4.17.4a.55.55,0,0,0,.42-.56A.64.64,0,0,0,201,95.73Zm.25-45.6h.34v.24h-.42Zm7.56-2.88h-.25c0-.16.08-.16.25-.16a.9.9,0,0,1,.25.08C209.07,47.25,209,47.25,208.82,47.25Zm.84,5.76.08-.32c.09,0,.17.08.17.24a.83.83,0,0,1-.25.56c-.08,0-.17,0-.17-.08A1.45,1.45,0,0,1,209.66,53Zm3.44-14.8h.34l-.08.24H213Zm11,46.88c0,.32.33.4.67.4s.67-.08.67-.4a2.16,2.16,0,0,0-1-.56C224.19,84.53,224.11,84.77,224.11,85.09Zm.59-12.64c.5,0,1-.32,1-.72a1,1,0,0,0-.25-.56C225.45,71.89,224.7,71.89,224.7,72.45Zm0,2.56c.75,0,1.34,0,1.34-.72C225.45,74.29,224.7,74.29,224.7,75Z" transform="translate(0 -8.82)"/>
    <path class="cls-2" d="M281.81,67.89l.09.56c-1.68.24-2.61,3.76-3.36,3.84a.83.83,0,0,1,.25.48c0,.08-.08.16-.25.16.59-.56-1.6,1.76-1.6,3.2a1,1,0,0,1-.67-.24v.24c0-.24-1.09,2.48-2.27,2.48l-1.26.16c-.67,0-.67,0-1.26-.48l-.59.08a2.29,2.29,0,0,1-.84-1.2s-.25.32-.42.32-.16,0-.16-.24c-.09.08.08-.08-1.18.08a8.11,8.11,0,0,0-3.53-.8h-.33a1.69,1.69,0,0,0-1-.32c-.34,0-1.76.48-1.76,1.2,0,1.6,1.51.64,1,1.6l.67-.08c0,.08.09.48.68.48l.67.64,1.34-.16c1,1,1.18,1,1.35,1.68a6.26,6.26,0,0,0,1.26-.08s.75,1.12,1.34,1.12l.59-.08.08.56h.42c.42,0,2.61,2.64,4.12,2.64.25,1.84,1.85,1.28,2.27,4.08l.67-.08s-.34.08-.34.24c0,.32.26-.24.42,1,0,.4,2.1,3.84,2.1,6.32a6.05,6.05,0,0,1-.08,1.2v.64a15.38,15.38,0,0,1-.93,4.24c0,.8-1.09,1.12-1.09,1.84-1.51,1.76-2.18,2.48-2.85,3.2a1.92,1.92,0,0,0-1.18.72c.08.8-4.2,1.2-6,3.6-.42,0-.84-.24-1.26-.24a.69.69,0,0,0-.67.4c-2.11.16-4.37.8-6.14,1,0-.56,0-.56-.59-.56a2.25,2.25,0,0,0-1.26.72c-.5,0-1.51-.32-2.6-.32s-1.59.16-3.11.16a32.88,32.88,0,0,1-5.62-.8c-1.94,0-2.19.32-2.52.16-1.68-1.36-3.87-.72-5.21-2l-1.26.16c-.84-1.2-2.86-.88-2.86-2.48,0-1.36,1.26-2.48,1.68-4l-.08-.64a.56.56,0,0,0,.58-.56c-.08-.56-.08-.56-.16-1.2l.67-.08a6.13,6.13,0,0,0-.09-1.28h.59a9,9,0,0,1-.08-1.12c.75-.24,1-2.48,1.59-2.56a6.08,6.08,0,0,1-.08-1.12,4,4,0,0,1,.42-1.84,2.35,2.35,0,0,0,1.35-.72l-.09-.64a3.52,3.52,0,0,1,1.26-.24c1.93,0,3.53,1,4.54,1,.17,0,.33-.08.5-.08a3.91,3.91,0,0,0,2.77.48c.68,0,1.26-.08,1.6-.8-.17-1.76-.84-2.24-2.19-3.36-1.84-.56-1.68-1.44-2.68-2.32a8,8,0,0,1-4-2c0-1.2-3.87-2.24-4.37-5.6-.67,0-2.1-2.72-2.1-3.52-.08-.08-.33-3.44-.5-5.28.17.16,1.09-1,1.09-2.32,0-.08,1.51-5,3.36-5.2,0-1.2,1.93-2.48,4-3.28-.42-.56,1.26-1.12,2.94-2,.42,0,1,.08,1.51.08.76,0,1.85-.48,10.42-1a16.89,16.89,0,0,0,2,.32c.58,0,1.26-.08,1.84-.08a7,7,0,0,1,2.52.48l.59-.08c1.26-.08,1.35.88,3,.88a9.06,9.06,0,0,0,1.43-.08c-.17-.08.67,1.44,3,1.44-.51,0,3.44,1.6,4.11,1.6,2.61,1.92,3.87,1.76,4.71,3.2C282.91,66.93,281.81,67.17,281.81,67.89Zm-29.39,4.72a.7.7,0,0,0-.34-.56c0,.56-.42.56-.42,1.2A.73.73,0,0,0,252.42,72.61Zm.67,13c.5,0,.84-.16.84-.4s-.93-.48-1.18-.48c-.5,0-.84.24-.84.56A2.19,2.19,0,0,0,253.09,85.57Zm0-18.88c0-.08,0-.08-.09-.08.51,0-.84,0-.84.64h.17A4.62,4.62,0,0,0,253.09,66.69Zm.5,8.16c-.92.16-1.17.16-1.17.64a2.76,2.76,0,0,0,.08.72C253.17,76.13,253.09,75.49,253.59,74.85Zm.93,2.48c-.68.64-1.85.16-1.85.72C253.42,78,254.52,77.89,254.52,77.33Zm.42,29c0-.32-.09-.64-.26-.64l-.16.16a9.93,9.93,0,0,0,.08,1.2C254.85,107.09,254.94,106.69,254.94,106.37Z" transform="translate(0 -8.82)"/>
    <path class="cls-2" d="M314.15,58.29c3.78,0,7.9.32,12.35.32h1.6c-.17.16-.17.8-.17,1.12h0c0,.24.67.24.67.24-.17.8-.84,1.36-.92,1.92.5.24.59.4.59.72,0,.48-.09.72-.17,1.52-.25,2.64-1.09,5.36-1.35,8.16,0,0,.59,0,.59.32a12.21,12.21,0,0,1-.33,3.44l-.26,3c0,.32-.58.56-.58,1s.25,1.36.25,2.24c0,.64-.09,1.28-.09,1.68l-.16,1c-.09.8-.17,1.12-.68,1.36A1.21,1.21,0,0,0,326,87c-.09,1.12-.25,1.68-.25,2.24l-.34,3.52v.4c0,.88.34,1,.34,1.36,0,1.52-2.86,1.36-4.87,1.36-1.85,0-3.7-.08-5.38-.08-1.51,0-2.52.08-3.19.08-2,0-1-.4-1.52-4,0-.4-.5-.72-.58-1.28a71.18,71.18,0,0,0-.59-7.12V82.37l-.25-4.4c-.09-1-.26-2.24-.26-3a9.82,9.82,0,0,1,.17-1.36c0-.88-.33-1.6-.33-2.48l-.42-5.2a5.28,5.28,0,0,0,.08-1.12c0-1.44-.34-2.8-.34-4.08a4.09,4.09,0,0,1,.51-2.16A38.76,38.76,0,0,1,314.15,58.29Zm-3.94,6.32c-.26,0-.34.08-.34.08,0,.16.42.4.42.56s-.17.16-.67.16h1.17a1.57,1.57,0,0,0,.09-.48C310.21,64.93,310.21,64.93,310.21,64.61Zm16,41.36c0-2.88-1.26-2.56-1.26-3.44-.34,0-.17-.88-1.18-1.28a3.43,3.43,0,0,1-.84-.8c.76,0-1.51-.24-1.51-.8.5.4-1.85-.64-3.11-.64a6.24,6.24,0,0,0-3.7,1.28c-.67-.08-.58.48-.84.48h-.08c0,.32-1.6.56-1.6,1.76-.25,2.4-1.34,1.52-1.34,3,0,1,.34,1.76.34,2.56.08.24-.09,1.36.5,1.92,2.35,2.24.17.48,2.69,2.88v-.08c.59,0-.59.72,1.51.72a9,9,0,0,0,3.36.56c1.6,0,1.51-1.2,3.78-1.2a.28.28,0,0,0-.08-.16c1-.16,1.42-1.28,1.59-1.44,1.6-.16-1.59.56,1.35-2.24C325.75,108.05,326.17,106.93,326.17,106ZM313.06,74.45h-.59V75h.59ZM312.81,71c0,.16.76.32,1,.32h.08a3.54,3.54,0,0,1-1-.56v.16A.08.08,0,0,0,312.81,71Zm.59,13.52h-.51l-.08.32h.59Zm1.34-15.2c0-.24-.42-.56-.84-.56-.08,0-.33.08-.33.24,0,.4,1,0,1,.48A.17.17,0,0,0,314.74,69.33Zm-.17,9.36c0,.24-.42-.48-.75-.48-.09,0-.09,0-.09.08S314.57,78.69,314.57,78.69Zm-.33,22c0-.08.33-.08.33-.24,0,.08-.16.24-.16.32A.28.28,0,0,1,314.24,100.69Zm1.51-37.44c0-.16-.08-.16-.08-.16-.26,0-.68.4-1.18.4,0,.32.67.32,1.34.32,0-.32,0-.32-.67-.32C315.16,63.25,315.75,63.25,315.75,63.25Zm.34,4.08a4,4,0,0,0-1.52.24,1.36,1.36,0,0,0,1,.48,2.76,2.76,0,0,0,1.51-.48A1.83,1.83,0,0,0,316.09,67.33Zm-1.35,7.12c0,.16.76.72.93.72,0-.08-.09-.24-.34-.48C315.33,74.69,315.25,74.45,314.74,74.45ZM315.83,72h-.58v.32h.58Zm0,16.16c.26,0,.51-.08.51-.16a5.25,5.25,0,0,0-.93-.08C315.41,88.05,315.67,88.13,315.83,88.13Zm-.08,14.08a.61.61,0,0,1-.34.16C315.41,102.21,315.58,102.21,315.75,102.21Zm1.18-18.64c0-.24-.09-.32-.34-.32a1.36,1.36,0,0,0-.67.24c0,.24.5.24,1,.24Zm.16-20.64h-.42c-.5,0-.67.16-.67.32s.17.4.42.56C316.42,63.49,317.09,63.25,317.09,62.93Zm-.33,37.52c.08.08.08.08.08.16s-.08.24-.08.48a1.55,1.55,0,0,1-.17-.48h.17Zm1.68-.16-.17.16h.17l-.09.08c0,.08.17.16.34.24-.17.16-.25,0-.59.16C318.1,100.61,317.93,100.29,318.44,100.29Zm-.17,12.88a.18.18,0,0,1-.17-.16v-.08c.09,0,.25.08.34.08C318.44,113.17,318.35,113.17,318.27,113.17Zm.34-13c0-.08.08-.16.08-.24.17.16.17.16.17.32h-.17Zm.5,11.6c0-.16-.08-.4-.08-.72l.16.16c0,.16-.16.16-.16.32a.56.56,0,0,1,.16.32c0,.16,0,.32-.16.32,0,.08.08.32.08.48s-.25.08-.25.32c-.09-.32.17-.32.17-.32l-.09-.08c0-.08,0-.08.09-.08s-.09-.24-.09-.32,0-.08.09-.16A.29.29,0,0,0,319.11,111.81Zm-.17,1.36c0-.08,0-.08-.08-.16.08.08.17.16.17.24s-.17.32-.17.4v-.48ZM319.36,67s.09,0,.09.08c-.26.08-.34.16-.34.24,0,.24,1,.24,1,.24H320C319.11,67.57,319.36,67.25,319.36,67Zm-.17,2.72h.09c.17,0,.59-.08.92-.08a4,4,0,0,0,.42.08c-.17-.24-.67-.24-.67-.24h-.59C319.28,69.57,319.19,69.65,319.19,69.73Zm.93,31.68c.08,0,.08,0,.08.08l-.08.16a.08.08,0,0,1-.09-.08C320,101.41,320,101.41,320.12,101.41Zm.76-21.6c0-.16-.68-.16-.68-.4-.17.08-.17.08-.17.16,0,.24.76.4.76.4S320.88,79.89,320.88,79.81Zm-.76,21a.81.81,0,0,1,.08-.24.28.28,0,0,1,.17.08c0,.08-.08.24-.08.32a.08.08,0,0,0,.08.08C320.2,101.09,320.12,101,320.12,100.85Zm.08-38.16a2.1,2.1,0,0,0,1.18.24C321.38,62.69,320.79,62.69,320.2,62.69Zm0,37.44c.17.16.17.16.34.16-.09-.08-.17.24-.34.16ZM320.37,75c0,.32.67.56,1.26.56C321.55,75,321,75,320.37,75Zm.25,26.48c0-.08.09-.16.09-.24.08.16.25.16.25.24l-.08.08C320.71,101.57,320.62,101.57,320.62,101.49Zm.67-20.16s-.5.24-.5.56c.5,0,.5,0,.5.24Zm0-7.76c0,.16.26.32.59.32.17,0,.34-.08.34-.24a.55.55,0,0,0-.09-.32c-.08.16-.16.24-.33.24s-.17-.08-.17-.24C321.38,73.41,321.29,73.49,321.29,73.57Zm1.18,3.6c-.17-.24-.25-.32-.42-.32-.34,0-.67.8-.67.8V78h.5v-.32C321.88,77.49,321.88,77.17,322.47,77.17Zm0-14.56c0-.08.08-.16.17-.24-.51,0-.59.32-1.18.32.42.4.51.64,1,.64a3.07,3.07,0,0,0,.76-.08C323.23,63,322.47,62.93,322.47,62.61Zm.17,5.84c0-.08-.42-.08-.76-.08l-.25-.24c0,.08.34.56.59.56h.17C322.55,68.61,322.64,68.53,322.64,68.45Zm-.17-3.28c0-.24-.08-.32-.25-.32s-.51.16-.51.32.09.16.17.24C322,65.17,322.47,65.17,322.47,65.17Zm-.08,1.44c0-.08-.09-.08-.51-.08,0,.24,0,.24.51.24Zm0,1.36c.33,0,.75-.16.75-.24s-.17-.16-1.26-.16A.47.47,0,0,0,322.39,68Zm-.09,8.72c.17,0,.17,0,.17-.08a2.83,2.83,0,0,1-.08-.48.83.83,0,0,1,.25-.56h-.25c-.42,0-.51.4-.51.72v.32A1.18,1.18,0,0,0,322.3,76.69Zm1.18,2.88v-.16c-.42,0-.59.16-.59.56v.24H324C323.56,80.05,323.48,79.81,323.48,79.57Zm.59-3.52c0-.08.75-.32.75-.32s-.08-.08-.25-.08-.42.08-.42.24,0,.08.08.16Zm.08,29.28a.31.31,0,0,0,.25-.08c0,.16,0,.16-.17.16A.08.08,0,0,1,324.15,105.33Zm.25-.48v-.08a.08.08,0,0,1,.09-.08c.16,0,.42.16.42.24-.42,0-.26.32-.68.32C324.23,105.17,324.4,105,324.4,104.85Zm0-.72c0-.08.09-.08.25-.08h.09v.08Zm.34.16c0,.32-.25.08-.17.16C324.49,104.29,324.57,104.29,324.74,104.29Z" transform="translate(0 -8.82)"/>
  </g>
</svg>
